<svg width="1000" height="1016" viewBox="0 0 1000 1016" fill="none" xmlns="http://www.w3.org/2000/svg">
<g clip-path="url(#clip0_221_4)">
<path d="M0 391C0 382.716 6.71573 376 15 376H985C993.284 376 1000 382.716 1000 391V661C1000 669.284 993.284 676 985 676H15C6.71572 676 0 669.284 0 661V391Z" fill="#BDF5B7"/>
<path d="M305 51C305 42.7157 311.716 36 320 36H680C688.284 36 695 42.7157 695 51V1001C695 1009.28 688.284 1016 680 1016H320C311.716 1016 305 1009.28 305 1001V51Z" fill="#81FF73"/>
<rect x="320" y="861" width="360" height="135" rx="15" fill="#5ECB33" fill-opacity="0.47"/>
<rect x="320" y="701" width="360" height="135" rx="15" fill="#5ECB33" fill-opacity="0.47"/>
<rect x="320" y="541" width="360" height="135" rx="15" fill="#5ECB33" fill-opacity="0.47"/>
<rect x="320" y="380" width="360" height="135" rx="15" fill="#5ECB33" fill-opacity="0.47"/>
<rect x="320" y="216" width="360" height="135" rx="15" fill="white" fill-opacity="0.47"/>
<rect x="320" y="56" width="360" height="135" rx="15" fill="white" fill-opacity="0.47"/>
<rect x="410" width="180" height="72" rx="15" fill="#70E655"/>
<path d="M610 126H340C320.67 126 305 141.67 305 161V341C305 410.036 249.036 466 180 466H0V376H180C199.33 376 215 360.33 215 341V161C215 91.9644 270.964 36 340 36H610V126Z" fill="#11AE00"/>
<path d="M1000 676H820.175V676.002C820.117 676.002 820.058 676 820 676C800.729 676 785.097 691.575 785.002 710.823H785V891C785 960.036 729.036 1016 660 1016H390V926H660C679.33 926 695 910.33 695 891V711C695 641.964 750.964 586 820 586H1000V676Z" fill="#11AE00"/>
<path d="M625 478.032C625 547.068 569.036 603.032 500 603.032C430.964 603.032 375 547.068 375 478.032V448H465V478.032C465 497.362 480.67 513.032 500 513.032C519.33 513.032 535 497.362 535 478.032V448H625V478.032Z" fill="#11AE00"/>
</g>
<defs>
<clipPath id="clip0_221_4">
<rect width="1000" height="1016" fill="white"/>
</clipPath>
</defs>
</svg>
